<mxfile host="Electron" modified="2023-07-28T03:03:02.709Z" agent="Mozilla/5.0 (Macintosh; Intel Mac OS X 10_15_7) AppleWebKit/537.36 (KHTML, like Gecko) draw.io/21.6.1 Chrome/112.0.5615.204 Electron/24.6.1 Safari/537.36" etag="aJr1p2wTe3fcCvv6NxJU" version="21.6.1" type="device">
  <diagram name="Page-1" id="3DWbLX8LwNOwpWT8NFyX">
    <mxGraphModel dx="1114" dy="854" grid="1" gridSize="10" guides="1" tooltips="1" connect="1" arrows="1" fold="1" page="1" pageScale="1" pageWidth="850" pageHeight="1100" math="0" shadow="0">
      <root>
        <mxCell id="0" />
        <mxCell id="1" parent="0" />
        <mxCell id="MGEPwprNwGjKW0UFifgo-3" value="" style="edgeStyle=orthogonalEdgeStyle;orthogonalLoop=1;jettySize=auto;html=1;curved=1;" edge="1" parent="1" source="MGEPwprNwGjKW0UFifgo-1" target="MGEPwprNwGjKW0UFifgo-2">
          <mxGeometry relative="1" as="geometry" />
        </mxCell>
        <mxCell id="MGEPwprNwGjKW0UFifgo-11" value="[A]" style="edgeLabel;html=1;align=center;verticalAlign=middle;resizable=0;points=[];fontColor=#1926e1;" vertex="1" connectable="0" parent="MGEPwprNwGjKW0UFifgo-3">
          <mxGeometry x="0.05" y="2" relative="1" as="geometry">
            <mxPoint as="offset" />
          </mxGeometry>
        </mxCell>
        <mxCell id="MGEPwprNwGjKW0UFifgo-1" value="A" style="rounded=1;whiteSpace=wrap;html=1;fillColor=#dae8fc;gradientColor=#7ea6e0;strokeColor=#6c8ebf;" vertex="1" parent="1">
          <mxGeometry x="200" y="40" width="60" height="30" as="geometry" />
        </mxCell>
        <mxCell id="MGEPwprNwGjKW0UFifgo-5" value="" style="edgeStyle=orthogonalEdgeStyle;orthogonalLoop=1;jettySize=auto;html=1;curved=1;" edge="1" parent="1" source="MGEPwprNwGjKW0UFifgo-2" target="MGEPwprNwGjKW0UFifgo-4">
          <mxGeometry relative="1" as="geometry" />
        </mxCell>
        <mxCell id="MGEPwprNwGjKW0UFifgo-12" value="[B]" style="edgeLabel;html=1;align=center;verticalAlign=middle;resizable=0;points=[];fontColor=#1926e1;" vertex="1" connectable="0" parent="MGEPwprNwGjKW0UFifgo-5">
          <mxGeometry x="-0.075" relative="1" as="geometry">
            <mxPoint as="offset" />
          </mxGeometry>
        </mxCell>
        <mxCell id="MGEPwprNwGjKW0UFifgo-2" value="B" style="rounded=1;whiteSpace=wrap;html=1;fillColor=#dae8fc;gradientColor=#7ea6e0;strokeColor=#6c8ebf;" vertex="1" parent="1">
          <mxGeometry x="340" y="40" width="60" height="30" as="geometry" />
        </mxCell>
        <mxCell id="MGEPwprNwGjKW0UFifgo-7" value="" style="edgeStyle=orthogonalEdgeStyle;orthogonalLoop=1;jettySize=auto;html=1;curved=1;" edge="1" parent="1" source="MGEPwprNwGjKW0UFifgo-4" target="MGEPwprNwGjKW0UFifgo-6">
          <mxGeometry relative="1" as="geometry" />
        </mxCell>
        <mxCell id="MGEPwprNwGjKW0UFifgo-13" value="[C]" style="edgeLabel;html=1;align=center;verticalAlign=middle;resizable=0;points=[];fontColor=#1926e1;" vertex="1" connectable="0" parent="MGEPwprNwGjKW0UFifgo-7">
          <mxGeometry x="-0.075" relative="1" as="geometry">
            <mxPoint as="offset" />
          </mxGeometry>
        </mxCell>
        <mxCell id="MGEPwprNwGjKW0UFifgo-9" value="" style="edgeStyle=orthogonalEdgeStyle;orthogonalLoop=1;jettySize=auto;html=1;entryX=1;entryY=0.5;entryDx=0;entryDy=0;curved=1;exitX=0.5;exitY=1;exitDx=0;exitDy=0;" edge="1" parent="1" source="MGEPwprNwGjKW0UFifgo-4" target="MGEPwprNwGjKW0UFifgo-8">
          <mxGeometry relative="1" as="geometry" />
        </mxCell>
        <mxCell id="MGEPwprNwGjKW0UFifgo-14" value="[C]" style="edgeLabel;html=1;align=center;verticalAlign=middle;resizable=0;points=[];fontColor=#1926e1;" vertex="1" connectable="0" parent="MGEPwprNwGjKW0UFifgo-9">
          <mxGeometry x="-0.1448" y="-4" relative="1" as="geometry">
            <mxPoint as="offset" />
          </mxGeometry>
        </mxCell>
        <mxCell id="MGEPwprNwGjKW0UFifgo-4" value="C" style="rounded=1;whiteSpace=wrap;html=1;fillColor=#dae8fc;gradientColor=#7ea6e0;strokeColor=#6c8ebf;" vertex="1" parent="1">
          <mxGeometry x="480" y="40" width="60" height="30" as="geometry" />
        </mxCell>
        <mxCell id="MGEPwprNwGjKW0UFifgo-6" value="E" style="rounded=1;whiteSpace=wrap;html=1;fillColor=#dae8fc;gradientColor=#7ea6e0;strokeColor=#6c8ebf;" vertex="1" parent="1">
          <mxGeometry x="620" y="40" width="60" height="30" as="geometry" />
        </mxCell>
        <mxCell id="MGEPwprNwGjKW0UFifgo-10" style="edgeStyle=orthogonalEdgeStyle;orthogonalLoop=1;jettySize=auto;html=1;entryX=0.5;entryY=1;entryDx=0;entryDy=0;curved=1;" edge="1" parent="1" source="MGEPwprNwGjKW0UFifgo-8" target="MGEPwprNwGjKW0UFifgo-2">
          <mxGeometry relative="1" as="geometry" />
        </mxCell>
        <mxCell id="MGEPwprNwGjKW0UFifgo-15" value="[D]" style="edgeLabel;html=1;align=center;verticalAlign=middle;resizable=0;points=[];fontColor=#1926e1;" vertex="1" connectable="0" parent="MGEPwprNwGjKW0UFifgo-10">
          <mxGeometry x="0.1448" y="-5" relative="1" as="geometry">
            <mxPoint as="offset" />
          </mxGeometry>
        </mxCell>
        <mxCell id="MGEPwprNwGjKW0UFifgo-8" value="D" style="rounded=1;whiteSpace=wrap;html=1;fillColor=#dae8fc;gradientColor=#7ea6e0;strokeColor=#6c8ebf;" vertex="1" parent="1">
          <mxGeometry x="410" y="160" width="60" height="30" as="geometry" />
        </mxCell>
      </root>
    </mxGraphModel>
  </diagram>
</mxfile>
